<?xml version="1.0" encoding="UTF-8"?>
<svg id="Layer_2" data-name="Layer 2" xmlns="http://www.w3.org/2000/svg" viewBox="0 0 904.86 191.52">
  <defs>
    <style>
      .cls-1 {
        fill: #00fa96;
      }
    </style>
  </defs>
  <g id="Layer_1-2" data-name="Layer 1">
    <g>
      <path class="cls-1" d="M0,101.28v-5.28C0,52.32,29.52,6.24,89.52,6.24c48.24,0,81.84,28.8,85.92,69.84h-44.64c-2.88-15.84-18.72-28.08-41.28-28.08-28.8,0-44.4,21.36-44.4,50.88s16.56,51.84,48.24,51.84c16.8,0,30.24-6.48,37.44-16.8v-9.12h-42.24v-31.2h97.44v31.2h-14.4v27.36c-14.64,25.2-42.72,39.36-78.24,39.36C27.36,191.52,0,141.84,0,101.28Z"/>
      <path class="cls-1" d="M188.25,147.84c0-29.76,25.68-42,61.68-42h20.88c-.24-12-5.52-17.52-18-17.52-9.36,0-34.08.96-50.16,1.92v-36.48c11.52-.96,31.44-1.92,45.84-1.92,40.8,0,64.08,17.76,64.08,54.48v80.4h-34.56v-24.48c-6,18-19.92,27.84-42,27.84-28.08,0-47.76-15.6-47.76-42.24ZM270.82,137.76v-9.36h-20.88c-11.76,0-18.48,6.48-18.48,16.32s6.48,16.08,18.48,16.08c11.28,0,19.92-5.28,20.88-23.04Z"/>
      <path class="cls-1" d="M325.29,186.72V54.24h34.56v46.8c2.88-30.48,18.24-48.72,44.64-48.72h5.28v37.44h-10.08c-19.68,0-30.72,11.04-30.72,30.72v66.24h-43.68Z"/>
      <path class="cls-1" d="M411.02,124.08v-5.76c0-38.64,23.52-67.92,60.72-67.92,18.72,0,32.88,7.44,41.52,21.12V11.52h43.68v175.2h-34.56v-28.08c-7.92,20.4-25.2,32.4-49.2,32.4-36.96,0-62.16-28.32-62.16-66.96ZM514.22,124.08v-8.16c0-18.96-14.16-29.52-29.28-29.52-17.52,0-30.24,14.16-30.24,34.8s12.72,33.84,30.24,33.84c15.84,0,29.28-11.04,29.28-30.96Z"/>
      <path class="cls-1" d="M584.49,186.72v-100.8h-16.8v-31.68h60.48v132.48h-43.68ZM579.21,21.84c0-12.72,7.2-21.84,23.04-21.84s23.04,9.12,23.04,21.84-7.2,21.84-23.04,21.84-23.04-9.12-23.04-21.84Z"/>
      <path class="cls-1" d="M639.66,147.84c0-29.76,25.68-42,61.68-42h20.88c-.24-12-5.52-17.52-18-17.52-9.36,0-34.08.96-50.16,1.92v-36.48c11.52-.96,31.44-1.92,45.84-1.92,40.8,0,64.08,17.76,64.08,54.48v80.4h-34.56v-24.48c-6,18-19.92,27.84-42,27.84-28.08,0-47.76-15.6-47.76-42.24ZM722.23,137.76v-9.36h-20.88c-11.76,0-18.48,6.48-18.48,16.32s6.48,16.08,18.48,16.08c11.28,0,19.92-5.28,20.88-23.04Z"/>
      <path class="cls-1" d="M776.7,186.72V54.24h34.56v34.8c5.04-26.4,20.4-39.12,44.4-39.12h1.92c30,0,47.28,19.68,47.28,60.96v75.84h-43.68v-77.04c0-12.24-7.68-20.88-20.16-20.88s-20.64,8.64-20.64,21.36v76.56h-43.68Z"/>
    </g>
  </g>
</svg>